<svg width="26" height="26" viewBox="0 0 26 26" fill="none" xmlns="http://www.w3.org/2000/svg">
<path fill-rule="evenodd" clip-rule="evenodd" d="M6.792 5.24524C7.15949 2.51423 9.8887 0.245239 13 0.245239C16.1113 0.245239 18.8405 2.51423 19.208 5.24524H22.8087C24.1895 5.24524 25.3087 6.36453 25.3087 7.74524C25.3087 7.86354 25.3003 7.98168 25.2836 8.09879L23.1408 23.0988C22.9648 24.3304 21.91 25.2452 20.6659 25.2452H5.33412C4.09 25.2452 3.0352 24.3304 2.85925 23.0988L0.716393 8.09879C0.521131 6.73196 1.47088 5.46563 2.83771 5.27037C2.95482 5.25364 3.07297 5.24524 3.19127 5.24524H6.792ZM16.6599 5.24524C16.2799 3.91784 14.7475 2.74524 13 2.74524C11.2525 2.74524 9.72014 3.91784 9.34015 5.24524H16.6599ZM3.19127 7.74524H6.75V10.2452H9.25V7.74524H16.75V10.2452H19.25V7.74524H22.8087L20.6659 22.7452H5.33412L3.19127 7.74524Z" fill="#001F24"/>
</svg>
