<svg width="165" height="50" viewBox="0 0 165 50" fill="none" xmlns="http://www.w3.org/2000/svg">
<path d="M65.59 28.66L68.01 20.84H71.65L67.69 32H63.45L59.49 20.84H63.13L65.59 28.66ZM72.7467 17.7C72.7467 17.18 72.9334 16.7533 73.3067 16.42C73.6801 16.0733 74.1734 15.9 74.7867 15.9C75.4001 15.9 75.8934 16.0733 76.2667 16.42C76.6401 16.7533 76.8267 17.18 76.8267 17.7C76.8267 18.2067 76.6401 18.6333 76.2667 18.98C75.8934 19.3133 75.4001 19.48 74.7867 19.48C74.1734 19.48 73.6801 19.3133 73.3067 18.98C72.9334 18.6333 72.7467 18.2067 72.7467 17.7ZM76.4867 20.84V32H73.0667V20.84H76.4867ZM85.928 20.72C87.208 20.72 88.2213 21.1467 88.968 22C89.728 22.8533 90.108 24.0267 90.108 25.52V32H86.688V25.92C86.688 25.1733 86.488 24.5933 86.088 24.18C85.7013 23.7533 85.1813 23.54 84.528 23.54C83.8346 23.54 83.2813 23.76 82.868 24.2C82.468 24.64 82.268 25.2667 82.268 26.08V32H78.848V20.84H82.268V22.88C82.588 22.2133 83.0613 21.6867 83.688 21.3C84.328 20.9133 85.0746 20.72 85.928 20.72ZM94.9436 20.84L97.6236 27.68L100.124 20.84H103.904L96.9436 37.32H93.1836L95.8036 31.58L91.1236 20.84H94.9436ZM108.459 17.2V32H105.039V17.2H108.459ZM120.981 28.02C120.981 28.7667 120.787 29.4533 120.401 30.08C120.027 30.7067 119.467 31.2067 118.721 31.58C117.987 31.9533 117.094 32.14 116.041 32.14C114.454 32.14 113.147 31.7533 112.121 30.98C111.094 30.2067 110.534 29.1267 110.441 27.74H114.081C114.134 28.2733 114.321 28.6933 114.641 29C114.974 29.3067 115.394 29.46 115.901 29.46C116.341 29.46 116.687 29.34 116.941 29.1C117.194 28.86 117.321 28.54 117.321 28.14C117.321 27.78 117.201 27.48 116.961 27.24C116.734 27 116.447 26.8067 116.101 26.66C115.754 26.5 115.274 26.3133 114.661 26.1C113.767 25.7933 113.034 25.5 112.461 25.22C111.901 24.9267 111.414 24.5 111.001 23.94C110.601 23.3667 110.401 22.6267 110.401 21.72C110.401 20.88 110.614 20.1533 111.041 19.54C111.467 18.9267 112.054 18.46 112.801 18.14C113.561 17.8067 114.427 17.64 115.401 17.64C116.974 17.64 118.221 18.0133 119.141 18.76C120.074 19.5067 120.601 20.5333 120.721 21.84H117.021C116.954 21.3733 116.781 21.0067 116.501 20.74C116.234 20.46 115.867 20.32 115.401 20.32C115.001 20.32 114.674 20.4267 114.421 20.64C114.181 20.8533 114.061 21.1667 114.061 21.58C114.061 21.9133 114.167 22.2 114.381 22.44C114.607 22.6667 114.887 22.8533 115.221 23C115.554 23.1467 116.034 23.3333 116.661 23.56C117.567 23.8667 118.307 24.1733 118.881 24.48C119.454 24.7733 119.947 25.2067 120.361 25.78C120.774 26.3533 120.981 27.1 120.981 28.02ZM129.191 29.06V32H127.651C126.345 32 125.325 31.68 124.591 31.04C123.871 30.3867 123.511 29.3133 123.511 27.82V23.72H122.011V20.84H123.511V18.1H126.931V20.84H129.171V23.72H126.931V27.88C126.931 28.32 127.018 28.6267 127.191 28.8C127.378 28.9733 127.685 29.06 128.111 29.06H129.191ZM136.334 20.7C137.44 20.7 138.427 20.9333 139.294 21.4C140.174 21.8533 140.86 22.5133 141.354 23.38C141.86 24.2467 142.114 25.26 142.114 26.42C142.114 27.58 141.86 28.5933 141.354 29.46C140.86 30.3267 140.174 30.9933 139.294 31.46C138.427 31.9133 137.44 32.14 136.334 32.14C135.227 32.14 134.234 31.9133 133.354 31.46C132.474 30.9933 131.78 30.3267 131.274 29.46C130.78 28.5933 130.534 27.58 130.534 26.42C130.534 25.26 130.78 24.2467 131.274 23.38C131.78 22.5133 132.474 21.8533 133.354 21.4C134.234 20.9333 135.227 20.7 136.334 20.7ZM136.334 23.66C135.68 23.66 135.127 23.9 134.674 24.38C134.234 24.8467 134.014 25.5267 134.014 26.42C134.014 27.3133 134.234 27.9933 134.674 28.46C135.127 28.9267 135.68 29.16 136.334 29.16C136.987 29.16 137.534 28.9267 137.974 28.46C138.414 27.9933 138.634 27.3133 138.634 26.42C138.634 25.5267 138.414 24.8467 137.974 24.38C137.534 23.9 136.987 23.66 136.334 23.66ZM147.307 22.94C147.734 22.26 148.28 21.72 148.947 21.32C149.627 20.92 150.36 20.72 151.147 20.72V24.38H150.167C149.26 24.38 148.554 24.5733 148.047 24.96C147.554 25.3467 147.307 26 147.307 26.92V32H143.887V20.84H147.307V22.94ZM163.178 26.12C163.178 26.4 163.145 26.7067 163.078 27.04H155.338C155.378 27.88 155.592 28.4867 155.978 28.86C156.365 29.22 156.858 29.4 157.458 29.4C157.965 29.4 158.385 29.2733 158.718 29.02C159.052 28.7667 159.272 28.44 159.378 28.04H162.998C162.852 28.8267 162.532 29.5333 162.038 30.16C161.545 30.7733 160.918 31.26 160.158 31.62C159.398 31.9667 158.552 32.14 157.618 32.14C156.525 32.14 155.552 31.9133 154.698 31.46C153.858 30.9933 153.198 30.3267 152.718 29.46C152.238 28.5933 151.998 27.58 151.998 26.42C151.998 25.2467 152.232 24.2333 152.698 23.38C153.178 22.5133 153.845 21.8533 154.698 21.4C155.552 20.9333 156.525 20.7 157.618 20.7C158.725 20.7 159.698 20.9267 160.538 21.38C161.378 21.8333 162.025 22.4733 162.478 23.3C162.945 24.1133 163.178 25.0533 163.178 26.12ZM159.718 25.6C159.732 24.8667 159.532 24.32 159.118 23.96C158.718 23.5867 158.218 23.4 157.618 23.4C156.992 23.4 156.472 23.5867 156.058 23.96C155.645 24.3333 155.412 24.88 155.358 25.6H159.718Z" fill="#001F24"/>
<circle cx="24.6148" cy="25" r="24.1352" fill="#0E0E0E"/>
<circle cx="24.6148" cy="25" r="9.30642" fill="#DD4848"/>
<circle cx="24.6148" cy="25" r="1.25475" fill="black"/>
</svg>
